<svg width="17" height="22" viewBox="0 0 17 22" fill="none" xmlns="http://www.w3.org/2000/svg">
    <path d="M1 9.5V18H16V9.5C16 5.35786 12.6421 2 8.5 2C4.35786 2 1 5.35786 1 9.5Z" stroke="currentColor" stroke-width="1.5"/>
    <path d="M11 19.5C11 19.8283 10.9353 20.1534 10.8097 20.4567C10.6841 20.76 10.4999 21.0356 10.2678 21.2678C10.0356 21.4999 9.76002 21.6841 9.45671 21.8097C9.15339 21.9353 8.8283 22 8.5 22C8.1717 22 7.84661 21.9353 7.54329 21.8097C7.23998 21.6841 6.96438 21.4999 6.73223 21.2678C6.50009 21.0356 6.31594 20.76 6.1903 20.4567C6.06466 20.1534 6 19.8283 6 19.5L8.5 19.5H11Z" fill="currentColor"/>
    <path d="M7 1.5C7 1.30302 7.0388 1.10796 7.11418 0.925975C7.18956 0.743986 7.30005 0.578628 7.43934 0.43934C7.57863 0.300052 7.74399 0.189563 7.92598 0.114181C8.10796 0.0387986 8.30302 9.00636e-08 8.5 1.07284e-07C8.69698 1.24505e-07 8.89204 0.0387987 9.07403 0.114181C9.25601 0.189563 9.42137 0.300052 9.56066 0.43934C9.69995 0.578628 9.81044 0.743987 9.88582 0.925975C9.9612 1.10796 10 1.30302 10 1.5L8.5 1.5L7 1.5Z" fill="currentColor"/>
</svg>