<svg width="13" height="13" viewBox="0 0 13 13" fill="none" xmlns="http://www.w3.org/2000/svg">
<path d="M10.8396 1.01971C10.6044 0.987479 10.3669 0.985783 10.1304 0.996302C10.0198 1.00139 9.99502 0.965084 10.0028 0.862949C10.0116 0.741133 10.0062 0.61762 10.0038 0.495126C9.99841 0.217901 9.77649 0.000736032 9.49961 5.7391e-05C9.22306 -0.00062125 8.99538 0.215865 8.98893 0.490375C8.98554 0.633908 8.98622 0.778119 8.98927 0.921651C8.99063 0.975264 8.97706 1.00173 8.91937 0.993927C8.89867 0.991212 8.8773 0.993927 8.85592 0.993927C7.28656 0.993927 5.71721 0.992909 4.14751 0.996302C4.04164 0.996641 3.99719 0.979675 4.00873 0.86227C4.02095 0.736382 4.01484 0.608459 4.01043 0.481553C4.00093 0.209079 3.76883 -0.00401445 3.49093 5.7391e-05C3.22117 0.00378991 3.00163 0.220955 2.9962 0.491393C2.99348 0.626782 2.99009 0.762171 2.99688 0.89722C3.00061 0.976621 2.97652 0.99698 2.89881 0.995284C2.55237 0.988497 2.20422 0.981372 1.86796 1.08249C0.84864 1.3889 0.238203 2.06957 0.0271456 3.11095C0.0227345 3.13334 0.0352893 3.16388 0 3.17304V10.7901C0.0624349 10.9974 0.0889019 11.2139 0.175768 11.4151C0.556146 12.293 1.21545 12.8125 2.15842 12.973C2.17844 12.9763 2.20117 12.9723 2.20897 12.9991H10.7402C10.8932 12.9648 11.0486 12.9377 11.1993 12.8949C12.1354 12.6313 12.8548 11.7901 12.9776 10.8271C12.9929 10.709 12.9997 10.5916 12.9997 10.4735C12.9997 8.1468 13.0004 5.82008 12.9997 3.49336C12.9994 2.25688 12.0652 1.18768 10.8396 1.01971ZM1.16489 2.87037C1.43193 2.35189 1.85269 2.06279 2.43734 2.02478C2.59309 2.0146 2.75019 2.02512 2.90662 2.01867C2.98127 2.01562 2.99722 2.04277 2.9962 2.11199C2.9928 2.39566 3.00672 2.67967 2.99179 2.96232C2.97618 3.24871 3.19436 3.51711 3.50721 3.51508C3.80107 3.51338 4.01077 3.2823 4.01144 2.96538C4.01178 2.68205 4.01484 2.39837 4.00941 2.11504C4.00805 2.03496 4.03214 2.01833 4.10849 2.01867C5.70363 2.02071 7.29878 2.02105 8.89392 2.01833C8.97468 2.018 8.99131 2.04209 8.98995 2.11776C8.98554 2.40957 8.98724 2.70139 8.98859 2.99354C8.98995 3.28773 9.21051 3.51372 9.49486 3.51576C9.77887 3.51745 10.0021 3.29248 10.0042 2.99795C10.0062 2.70614 10.0083 2.41398 10.0028 2.12217C10.0011 2.03734 10.0269 2.01596 10.1084 2.01867C10.4029 2.02851 10.6988 1.99899 10.9858 2.10384C11.5803 2.32101 11.9794 2.87648 11.9841 3.50829C11.9851 3.63961 11.9797 3.77092 11.9861 3.9019C11.9895 3.97655 11.9627 3.99148 11.8932 3.99114C11.4449 3.98809 10.9964 3.98945 10.5478 3.98945H6.49832C4.71282 3.98945 2.92732 3.98843 1.14181 3.9925C1.03391 3.9925 1.01185 3.964 1.01253 3.86084C1.01457 3.52254 1.00337 3.1839 1.16489 2.87037ZM11.9841 10.4355C11.9841 11.3123 11.3411 11.9777 10.4657 11.9798C7.82133 11.9855 5.17701 11.9859 2.53269 11.9798C1.65792 11.9777 1.01559 11.3116 1.01559 10.4342C1.01559 8.67003 1.0166 6.90557 1.01287 5.14144C1.01287 5.03557 1.03798 5.00978 1.14385 5.01012C2.93376 5.01385 4.72334 5.01284 6.51325 5.01284C8.30317 5.01284 10.0673 5.01385 11.8443 5.00978C11.9624 5.00944 11.9872 5.04202 11.9868 5.15501C11.9831 6.91507 11.9845 8.67546 11.9841 10.4355Z" fill="#B4B4B4"/>
<path d="M7.50871 7.00737C7.50804 7.27883 7.28375 7.5116 7.01263 7.51398C6.67025 7.51703 6.32788 7.51669 5.98551 7.51398C5.70625 7.51194 5.48297 7.27883 5.48637 6.99957C5.4901 6.72506 5.71167 6.50247 5.9872 6.49941C6.16026 6.49771 6.33365 6.49941 6.50704 6.49941C6.68043 6.49941 6.845 6.49738 7.01399 6.50009C7.28442 6.50382 7.50905 6.73592 7.50871 7.00771V7.00737Z" fill="#B4B4B4"/>
<path d="M10.5086 7.00904C10.5072 7.28796 10.2822 7.51259 9.99889 7.51429C9.665 7.51599 9.33111 7.51599 8.99756 7.51429C8.71558 7.51293 8.48858 7.28762 8.48586 7.0104C8.48315 6.72944 8.71355 6.50108 9.00231 6.49938C9.16722 6.49836 9.33213 6.49938 9.49704 6.49938C9.66195 6.49938 9.835 6.49803 10.004 6.49938C10.2853 6.5021 10.5102 6.73012 10.5086 7.00904Z" fill="#B4B4B4"/>
<path d="M4.51427 7.00778C4.51325 7.28501 4.28625 7.51167 4.00495 7.51439C3.83597 7.51608 3.66699 7.51473 3.49767 7.51473C3.32835 7.51473 3.1597 7.51676 2.99072 7.51439C2.71723 7.51065 2.49396 7.28501 2.49124 7.01185C2.48819 6.73361 2.71316 6.50151 2.9931 6.49982C3.33106 6.49778 3.66902 6.49778 4.00732 6.49982C4.28794 6.50118 4.51495 6.73056 4.51427 7.00778Z" fill="#B4B4B4"/>
<path d="M4.51424 9.99649C4.51797 10.2652 4.29334 10.5055 4.02359 10.5092C3.67714 10.5143 3.33069 10.514 2.98425 10.5095C2.71211 10.5062 2.4902 10.2724 2.49121 10.0002C2.49189 9.72538 2.71008 9.50109 2.98696 9.49566C3.16001 9.49226 3.33341 9.49498 3.50646 9.49498C3.67951 9.49498 3.85325 9.49158 4.0263 9.49566C4.29334 9.5021 4.51017 9.72741 4.51424 9.99649Z" fill="#B4B4B4"/>
<path d="M7.5087 9.99941C7.51005 10.2695 7.28576 10.506 7.01499 10.5094C6.66854 10.5138 6.32209 10.5142 5.97565 10.5094C5.70385 10.5053 5.48397 10.2699 5.48635 9.9967C5.48872 9.7266 5.70385 9.50197 5.97191 9.49586C6.14531 9.49179 6.31836 9.49484 6.49175 9.49484C6.66515 9.4945 6.8382 9.49179 7.01159 9.49484C7.28712 9.50061 7.50734 9.72592 7.5087 9.99907V9.99941Z" fill="#B4B4B4"/>
<path d="M10.5089 10.0033C10.5075 10.2757 10.2853 10.5065 10.0121 10.5095C9.66977 10.5136 9.32739 10.5133 8.98536 10.5095C8.71254 10.5065 8.48893 10.2774 8.48588 10.0053C8.48248 9.72876 8.70644 9.50006 8.98943 9.49497C9.15841 9.49191 9.32739 9.49429 9.49637 9.49429C9.66977 9.49463 9.84316 9.49157 10.0162 9.49531C10.2914 9.50107 10.5099 9.72876 10.5089 10.0029V10.0033Z" fill="#B4B4B4"/>
</svg>
