<svg width="24" height="24" viewBox="0 0 24 24" fill="none" xmlns="http://www.w3.org/2000/svg">
<rect x="5" y="5" width="14" height="16" rx="2" stroke="currentColor" stroke-width="1.5"/>
<line x1="8" y1="3.25" x2="16" y2="3.25" stroke="currentColor" stroke-width="1.5"/>
<path d="M12.6698 7V8.88743H11.7103V7H12.6698ZM12.5514 17.3083V19H11.5981V17.3083H12.5514ZM13.4922 15.2693C13.4922 15.0253 13.4424 14.8127 13.3427 14.6318C13.2471 14.4466 13.0893 14.2804 12.8692 14.1331C12.649 13.9816 12.3541 13.8406 11.9844 13.7102C11.4528 13.5208 10.9875 13.3083 10.5888 13.0726C10.1942 12.8327 9.88681 12.5381 9.66667 12.1888C9.45067 11.8354 9.34268 11.3956 9.34268 10.8695C9.34268 10.3519 9.45898 9.90373 9.69159 9.52499C9.92835 9.14624 10.2565 8.85376 10.676 8.64755C11.0955 8.44135 11.5857 8.33824 12.1464 8.33824C12.5784 8.33824 12.9668 8.40347 13.3115 8.53393C13.6604 8.66439 13.9574 8.85587 14.2025 9.10836C14.4476 9.36086 14.6345 9.67228 14.7632 10.0426C14.8962 10.4087 14.9626 10.8296 14.9626 11.3051H13.4673C13.4673 11.0358 13.4361 10.7959 13.3738 10.5855C13.3157 10.3709 13.2285 10.1899 13.1121 10.0426C12.9958 9.89111 12.8546 9.77538 12.6885 9.69542C12.5265 9.61547 12.3416 9.57549 12.134 9.57549C11.839 9.57549 11.5961 9.6323 11.405 9.74592C11.2139 9.85534 11.0727 10.0068 10.9813 10.2004C10.8941 10.394 10.8505 10.6149 10.8505 10.8632C10.8505 11.1031 10.8962 11.3135 10.9875 11.4945C11.0789 11.6754 11.2347 11.8396 11.4548 11.9868C11.6791 12.1299 11.9865 12.2751 12.3769 12.4224C12.9128 12.616 13.3759 12.8327 13.7664 13.0726C14.161 13.3083 14.4642 13.6007 14.676 13.95C14.892 14.2951 15 14.7307 15 15.2567C15 15.7996 14.8754 16.2604 14.6262 16.6391C14.3811 17.0179 14.0363 17.3062 13.5919 17.5039C13.1516 17.6975 12.6386 17.7943 12.053 17.7943C11.6833 17.7943 11.3157 17.7459 10.9502 17.6491C10.5888 17.5481 10.2606 17.384 9.96573 17.1568C9.67082 16.9295 9.43614 16.6286 9.26168 16.2541C9.08723 15.8753 9 15.4124 9 14.8653H10.5078C10.5078 15.1936 10.5514 15.4671 10.6386 15.686C10.7259 15.9048 10.8442 16.0773 10.9938 16.2036C11.1433 16.3298 11.3094 16.4203 11.4922 16.475C11.6791 16.5297 11.866 16.5571 12.053 16.5571C12.3645 16.5571 12.6262 16.5045 12.838 16.3993C13.054 16.2898 13.216 16.1383 13.324 15.9448C13.4361 15.747 13.4922 15.5218 13.4922 15.2693Z" fill="currentColor"/>
</svg>
