<svg width="24" height="24" viewBox="0 0 24 24" fill="none" xmlns="http://www.w3.org/2000/svg">
<path d="M12.5 21C17.1944 21 21 17.1944 21 12.5C21 7.80558 17.1944 4 12.5 4C7.80558 4 4 7.80558 4 12.5C4 17.1944 7.80558 21 12.5 21Z" stroke="currentColor" stroke-width="1.5" stroke-linecap="round" stroke-linejoin="round"/>
<path d="M13.2814 6V8.04471H12.162V6H13.2814ZM13.1433 17.1673V19H12.0312V17.1673H13.1433ZM14.2409 14.9584C14.2409 14.694 14.1828 14.4638 14.0665 14.2678C13.955 14.0672 13.7709 13.8871 13.514 13.7275C13.2572 13.5634 12.9131 13.4107 12.4818 13.2693C11.8615 13.0642 11.3188 12.8339 10.8536 12.5786C10.3932 12.3188 10.0346 11.9996 9.77778 11.6213C9.52579 11.2383 9.39979 10.7619 9.39979 10.192C9.39979 9.63125 9.53548 9.14571 9.80685 8.7354C10.0831 8.32509 10.4659 8.00824 10.9553 7.78485C11.4448 7.56146 12.0166 7.44976 12.6708 7.44976C13.1748 7.44976 13.6279 7.52043 14.0301 7.66176C14.4372 7.80309 14.7837 8.01052 15.0696 8.28406C15.3555 8.5576 15.5736 8.89497 15.7238 9.29616C15.8789 9.69279 15.9564 10.1487 15.9564 10.6639H14.2118C14.2118 10.3721 14.1755 10.1122 14.1028 9.88427C14.035 9.65176 13.9332 9.45573 13.7975 9.29616C13.6618 9.13204 13.4971 9.00666 13.3032 8.92004C13.1142 8.83342 12.8986 8.79011 12.6563 8.79011C12.3122 8.79011 12.0287 8.85166 11.8058 8.97475C11.5829 9.09328 11.4181 9.25741 11.3115 9.46712C11.2098 9.67684 11.1589 9.91618 11.1589 10.1852C11.1589 10.445 11.2122 10.673 11.3188 10.869C11.4254 11.0651 11.6071 11.2429 11.864 11.4024C12.1256 11.5574 12.4843 11.7147 12.9398 11.8743C13.5649 12.084 14.1052 12.3188 14.5607 12.5786C15.0211 12.8339 15.3749 13.1508 15.622 13.5292C15.874 13.903 16 14.3749 16 14.9448C16 15.5329 15.8546 16.0321 15.5639 16.4424C15.278 16.8527 14.8757 17.165 14.3572 17.3793C13.8435 17.589 13.2451 17.6938 12.5618 17.6938C12.1305 17.6938 11.7016 17.6414 11.2752 17.5366C10.8536 17.4271 10.4708 17.2493 10.1267 17.0032C9.78262 16.757 9.50883 16.431 9.3053 16.0253C9.10177 15.6149 9 15.1134 9 14.5208H10.7591C10.7591 14.8764 10.81 15.1727 10.9117 15.4098C11.0135 15.6469 11.1516 15.8338 11.3261 15.9705C11.5005 16.1073 11.6944 16.2053 11.9076 16.2646C12.1256 16.3239 12.3437 16.3535 12.5618 16.3535C12.9252 16.3535 13.2305 16.2965 13.4777 16.1825C13.7297 16.064 13.9187 15.8999 14.0447 15.6902C14.1755 15.4759 14.2409 15.232 14.2409 14.9584Z" fill="currentColor"/>
</svg>
