<svg width="24" height="24" viewBox="0 0 24 24" fill="none" xmlns="http://www.w3.org/2000/svg">
<path d="M4 21H20M6.8102 17.6C6.85102 17.6 6.89184 17.5958 6.93265 17.5894L10.3653 16.9625C10.4061 16.954 10.4449 16.9349 10.4735 16.903L19.1245 7.89512C19.1434 7.87547 19.1584 7.85211 19.1687 7.82641C19.1789 7.8007 19.1842 7.77314 19.1842 7.74531C19.1842 7.71748 19.1789 7.68992 19.1687 7.66422C19.1584 7.63851 19.1434 7.61516 19.1245 7.5955L15.7327 4.06163C15.6939 4.02125 15.6429 4 15.5878 4C15.5327 4 15.4816 4.02125 15.4429 4.06163L6.79184 13.0695C6.76122 13.1014 6.74286 13.1396 6.73469 13.1821L6.13265 16.7564C6.1128 16.8702 6.11989 16.9874 6.15332 17.0977C6.18675 17.2081 6.2455 17.3083 6.32449 17.3896C6.45918 17.5256 6.62857 17.6 6.8102 17.6Z" stroke="currentColor" stroke-width="1.5" stroke-linecap="round" stroke-linejoin="round"/>
</svg>
