<svg width="24" height="24" viewBox="0 0 24 24" fill="none" xmlns="http://www.w3.org/2000/svg">
    <path d="M14.1667 18.1755V13.7446C14.1667 13.5264 14.2542 13.3165 14.4108 13.1616L19.5117 8.11939C19.6662 7.96696 19.7889 7.78541 19.8727 7.58527C19.9565 7.38512 19.9998 7.17034 20 6.95337V4.82456C19.9996 4.7157 19.9776 4.60799 19.9355 4.50761C19.8934 4.40722 19.8318 4.31613 19.7544 4.23954C19.677 4.16296 19.5853 4.10238 19.4844 4.06128C19.3836 4.02017 19.2756 3.99936 19.1667 4.00002H5.83333C5.3725 4.00002 5 4.36814 5 4.82456V6.95337C5 7.39063 5.17583 7.81039 5.48833 8.11939L10.5892 13.1616C10.6665 13.2378 10.7278 13.3285 10.7697 13.4286C10.8117 13.5287 10.8333 13.6361 10.8333 13.7446V19" stroke="currentColor" stroke-width="1.5"/>
</svg>
