<svg width="1024" height="1024" viewBox="0 0 102 185" fill="none" xmlns="http://www.w3.org/2000/svg">
<path d="M101.21 32.33C101.21 32.94 101.18 33.56 101.13 34.18C99.83 49.18 68.96 56.23 38.53 65.82V0C70.33 0.02 101.21 11.66 101.21 32.33Z" fill="url(#paint0_linear_1323_401)"/>
<g filter="url(#filter0_i_1323_401)">
<path d="M38.53 103.32V65.82C24.65 70.2 10.86 75.11 0 81.54V184.86C10.86 178.43 24.65 173.52 38.53 169.14C68.96 159.55 99.83 152.51 101.13 137.51C101.18 136.89 101.21 136.27 101.21 135.66C101.21 114.99 70.33 103.34 38.53 103.32V103.32Z" fill="#002071"/>
</g>
<path opacity="0.6" d="M101.21 32.33V135.66C101.21 114.99 70.33 103.34 38.53 103.32V65.82C68.96 56.23 99.83 49.18 101.13 34.18C101.18 33.56 101.21 32.94 101.21 32.33V32.33Z" fill="#65EDBC"/>
<defs>
<filter id="filter0_i_1323_401" x="-9" y="65.82" width="110.21" height="129.04" filterUnits="userSpaceOnUse" color-interpolation-filters="sRGB">
<feFlood flood-opacity="0" result="BackgroundImageFix"/>
<feBlend mode="normal" in="SourceGraphic" in2="BackgroundImageFix" result="shape"/>
<feColorMatrix in="SourceAlpha" type="matrix" values="0 0 0 0 0 0 0 0 0 0 0 0 0 0 0 0 0 0 127 0" result="hardAlpha"/>
<feOffset dx="-9" dy="10"/>
<feGaussianBlur stdDeviation="9"/>
<feComposite in2="hardAlpha" operator="arithmetic" k2="-1" k3="1"/>
<feColorMatrix type="matrix" values="0 0 0 0 0 0 0 0 0 0 0 0 0 0 0 0 0 0 0.25 0"/>
<feBlend mode="normal" in2="shape" result="effect1_innerShadow_1323_401"/>
</filter>
<linearGradient id="paint0_linear_1323_401" x1="80.5" y1="49.5" x2="29.5" y2="23.5" gradientUnits="userSpaceOnUse">
<stop stop-color="#9AFFDB"/>
<stop offset="0.497614" stop-color="#65EDBC"/>
<stop offset="1" stop-color="#33CD96"/>
</linearGradient>
</defs>
</svg>
