<svg width="8" height="17" viewBox="0 0 8 17" fill="none" xmlns="http://www.w3.org/2000/svg">
    <path d="M7.28637 15.1654L7.04884 16.1364C6.33624 16.4177 5.76702 16.6317 5.34315 16.7789C4.91883 16.9266 4.42579 17 3.86403 17C3.00136 17 2.33036 16.7887 1.8518 16.3689C1.37323 15.9475 1.13387 15.4135 1.13387 14.7656C1.13387 14.5148 1.15124 14.2569 1.18735 13.9941C1.22376 13.7309 1.28166 13.4346 1.36089 13.1034L2.25144 9.95132C2.33067 9.64949 2.39801 9.36351 2.45195 9.09307C2.50665 8.8243 2.533 8.57702 2.533 8.35442C2.533 7.95188 2.44966 7.67032 2.28374 7.51201C2.11782 7.35417 1.80121 7.27403 1.33118 7.27403C1.10096 7.27403 0.864345 7.3109 0.623157 7.3822C0.380903 7.45381 0.173844 7.52298 0 7.58728L0.23814 6.61552C0.821531 6.37799 1.37917 6.17459 1.91259 6.00577C2.44601 5.8365 2.95002 5.75179 3.42675 5.75179C4.28348 5.75179 4.94458 5.95884 5.40882 6.37296C5.87307 6.78738 6.10511 7.32461 6.10511 7.98662C6.10511 8.12359 6.08987 8.36493 6.05712 8.70988C6.02512 9.05558 5.96555 9.37234 5.8787 9.66046L4.99196 12.7999C4.91928 13.052 4.85392 13.3403 4.79709 13.6647C4.73843 13.9869 4.7104 14.2331 4.7104 14.3983C4.7104 14.8151 4.80334 15.0998 4.98968 15.251C5.17738 15.4023 5.50069 15.4776 5.95991 15.4776C6.1755 15.4776 6.4208 15.4394 6.69338 15.3643C6.96519 15.2891 7.16341 15.2232 7.28637 15.1654ZM7.51125 1.98527C7.51125 2.53224 7.30511 2.99938 6.89084 3.38348C6.47763 3.76896 5.97972 3.96185 5.39724 3.96185C4.81294 3.96185 4.3138 3.76896 3.89587 3.38348C3.47871 2.99923 3.26967 2.53224 3.26967 1.98527C3.26967 1.43936 3.47871 0.971455 3.89587 0.582477C4.31304 0.194108 4.81309 0 5.39724 0C5.97957 0 6.47763 0.194565 6.89084 0.582477C7.30541 0.971455 7.51125 1.43951 7.51125 1.98527Z" fill="currentColor"/>
</svg>