<svg width="24" height="24" viewBox="0 0 24 24" fill="none" xmlns="http://www.w3.org/2000/svg">
<path d="M7.82051 11.641C8.82594 11.641 9.64101 10.8259 9.64101 9.82051C9.64101 8.81507 8.82594 8 7.82051 8C6.81507 8 6 8.81507 6 9.82051C6 10.8259 6.81507 11.641 7.82051 11.641Z" stroke="currentColor" stroke-width="1.5" stroke-linecap="round" stroke-linejoin="round"/>
<path d="M16.8205 7.64101C17.8259 7.64101 18.641 6.82594 18.641 5.82051C18.641 4.81507 17.8259 4 16.8205 4C15.8151 4 15 4.81507 15 5.82051C15 6.82594 15.8151 7.64101 16.8205 7.64101Z" stroke="currentColor" stroke-width="1.5" stroke-linecap="round" stroke-linejoin="round"/>
<path d="M14 13C14 11.3431 15.3431 10 17 10V10C18.6569 10 20 11.3431 20 13V21H14V13Z" stroke="currentColor" stroke-width="1.5" stroke-linecap="round" stroke-linejoin="round"/>
<path d="M5 17C5 15.3431 6.34315 14 8 14V14C9.65685 14 11 15.3431 11 17V21H5V17Z" stroke="currentColor" stroke-width="1.5" stroke-linecap="round" stroke-linejoin="round"/>
</svg>
