<svg width="24" height="32" viewBox="0 0 24 32" fill="none" xmlns="http://www.w3.org/2000/svg">
<path d="M20 29C20.55 29 21 28.55 21 28V26H24V28C24 30.2062 22.2062 32 20 32H4C1.79063 32 0 30.2062 0 28V26H3V28C3 28.55 3.4475 29 4 29H20ZM16 10C14.8937 10 14 9.10625 14 8V3H4C3.4475 3 3 3.4475 3 4V12H0V4C0 1.79063 1.79063 0 4 0H14.3438C15.4062 0 16.4188 0.421438 17.1688 1.17188L22.8312 6.83125C23.5812 7.58125 24 8.59375 24 9.65625V12H21V10H16ZM5.5 14C7.43125 14 9 15.5688 9 17.5C9 19.4312 7.43125 21 5.5 21H5V23C5 23.55 4.5525 24 4 24C3.4475 24 3 23.55 3 23V15C3 14.45 3.4475 14 4 14H5.5ZM7 17.5C7 16.6687 6.33125 16 5.5 16H5V19H5.5C6.33125 19 7 18.3313 7 17.5ZM10 15C10 14.45 10.45 14 11 14H12.5C14.1562 14 15.5 15.3438 15.5 17V21C15.5 22.6562 14.1562 24 12.5 24H11C10.45 24 10 23.55 10 23V15ZM12 22H12.5C13.05 22 13.5 21.55 13.5 21V17C13.5 16.45 13.05 16 12.5 16H12V22ZM21 14C21.55 14 22 14.45 22 15C22 15.55 21.55 16 21 16H19V18H21C21.55 18 22 18.45 22 19C22 19.55 21.55 20 21 20H19V23C19 23.55 18.55 24 18 24C17.45 24 17 23.55 17 23V15C17 14.45 17.45 14 18 14H21Z" fill="currentColor"/>
</svg>
