<svg width="10" height="10" viewBox="0 0 10 10" fill="none" xmlns="http://www.w3.org/2000/svg">
<path d="M4.08333 4.83333C5.41801 4.83333 6.49998 3.75136 6.49998 2.41667C6.49998 1.08199 5.41801 0 4.08333 0C2.74864 0 1.66667 1.08198 1.66667 2.41667C1.66667 3.75136 2.74864 4.83333 4.08333 4.83333ZM5.22812 3.37588C5.11817 3.73938 4.64725 4.01261 4.08286 4.01261C3.51845 4.01261 3.04752 3.73936 2.93758 3.37588H5.22812ZM9.16667 8.33333V8.66667C9.16667 8.75873 9.09206 8.83333 9.00002 8.83333H8V9.83333C8 9.92539 7.92539 10 7.83335 10H7.50002C7.40797 10 7.33337 9.92539 7.33337 9.83333V8.83335H6.33333C6.24129 8.83335 6.16668 8.75874 6.16668 8.66668V8.33333C6.16668 8.24129 6.24129 8.16668 6.33333 8.16668H7.33335V7.16668C7.33335 7.07463 7.40796 7.00002 7.5 7.00002H7.83333C7.92538 7.00002 7.99998 7.07463 7.99998 7.16668V8.16668H9C9.09206 8.16667 9.16667 8.24129 9.16667 8.33333ZM5.83333 8.33333V8.66667C5.83333 8.75521 5.85841 8.83722 5.89895 8.90943C5.39564 8.96417 4.79569 8.99998 4.08333 8.99998C1.75315 8.99998 0.612859 8.61923 0.194788 8.43322C0.0869118 8.38521 0 8.24799 0 8.12992V7.33333C0 6.13961 0.908889 5.1493 2.06861 5.01667C2.10386 5.01263 2.15611 5.02773 2.18484 5.04851C2.71958 5.43562 3.37422 5.66667 4.08333 5.66667C4.79245 5.66667 5.44711 5.43562 5.98183 5.04851C6.01056 5.02773 6.06283 5.01263 6.09805 5.01667C7.05796 5.12645 7.84428 5.82448 8.08734 6.7384C8.01263 6.69389 7.92642 6.66668 7.83333 6.66668H7.5C7.2243 6.66668 7 6.89096 7 7.16668V7.83335H6.33333C6.05763 7.83333 5.83333 8.05762 5.83333 8.33333Z" fill="currentColor"/>
</svg>
