<svg width="24" height="24" viewBox="0 0 24 24" fill="none" xmlns="http://www.w3.org/2000/svg">
<path d="M13.5009 21H10.4996C10.3115 21 10.1291 20.9338 9.98257 20.8123C9.83605 20.6908 9.73422 20.5213 9.69398 20.3319L9.35838 18.7305C8.9107 18.5283 8.4862 18.2754 8.09269 17.9766L6.57799 18.4738C6.3987 18.5327 6.20525 18.5267 6.02976 18.4566C5.85427 18.3866 5.7073 18.2568 5.61326 18.0888L4.10927 15.4104C4.01622 15.2422 3.98129 15.0465 4.01019 14.8551C4.0391 14.6638 4.13014 14.4883 4.26841 14.3573L5.4434 13.2523C5.38997 12.7517 5.38997 12.2466 5.4434 11.7461L4.26841 10.6436C4.12994 10.5125 4.03878 10.3368 4.00987 10.1453C3.98096 9.95382 4.016 9.75787 4.10927 9.5896L5.60996 6.90955C5.704 6.74152 5.85097 6.6117 6.02646 6.54166C6.20195 6.47162 6.3954 6.46556 6.57469 6.5245L8.08939 7.02175C8.29058 6.86875 8.50002 6.72595 8.71605 6.59675C8.92467 6.47605 9.13905 6.3664 9.35838 6.26865L9.6948 4.66895C9.73485 4.47957 9.83648 4.30998 9.98285 4.18832C10.1292 4.06665 10.3115 4.0002 10.4996 4H13.5009C13.689 4.0002 13.8713 4.06665 14.0177 4.18832C14.164 4.30998 14.2657 4.47957 14.3057 4.66895L14.6454 6.2695C15.0925 6.47288 15.5169 6.72567 15.9111 7.02345L17.4266 6.5262C17.6058 6.46748 17.7991 6.47365 17.9744 6.54368C18.1497 6.61371 18.2965 6.7434 18.3905 6.91125L19.8912 9.5913C20.0825 9.93725 20.0166 10.375 19.7321 10.6445L18.5571 11.7494C18.6105 12.25 18.6105 12.7551 18.5571 13.2557L19.7321 14.3607C20.0166 14.631 20.0825 15.0679 19.8912 15.4138L18.3905 18.0938C18.2965 18.2619 18.1495 18.3917 17.974 18.4617C17.7986 18.5318 17.6051 18.5378 17.4258 18.4789L15.9111 17.9816C15.5179 18.2803 15.0937 18.5329 14.6462 18.7347L14.3057 20.3319C14.2655 20.5211 14.1638 20.6905 14.0174 20.812C13.8711 20.9335 13.6889 20.9998 13.5009 21V21ZM11.997 9.1C11.1222 9.1 10.2833 9.45821 9.66476 10.0958C9.04623 10.7335 8.69874 11.5983 8.69874 12.5C8.69874 13.4017 9.04623 14.2665 9.66476 14.9042C10.2833 15.5418 11.1222 15.9 11.997 15.9C12.8717 15.9 13.7106 15.5418 14.3291 14.9042C14.9477 14.2665 15.2952 13.4017 15.2952 12.5C15.2952 11.5983 14.9477 10.7335 14.3291 10.0958C13.7106 9.45821 12.8717 9.1 11.997 9.1V9.1Z" stroke="currentColor" stroke-width="1.5" stroke-linecap="round" stroke-linejoin="round"/>
</svg>
