<svg
  width="24"
  height="24"
  viewBox="0 0 24 24"
  fill="none"
  xmlns="http://www.w3.org/2000/svg"
>
<path
    d="M3 20V16.9643C3.00129 15.8375 3.44947 14.7573 4.24622 13.9605C5.04297 13.1638 6.12322 12.7156 7.25 12.7143H10.8929C12.0196 12.7156 13.0999 13.1638 13.8966 13.9605C14.6934 14.7573 15.1416 15.8375 15.1429 16.9643V20"
    stroke="currentColor"
    stroke-width="1.5"
  />
<circle
    cx="9.07145"
    cy="6.64286"
    r="3.64286"
    stroke="currentColor"
    stroke-width="1.5"
  />
<path
    d="M20.4048 20V16.9643C20.4035 15.8375 19.9553 14.7573 19.1586 13.9605C18.3618 13.1638 17.2816 12.7156 16.1548 12.7143"
    stroke="currentColor"
    stroke-width="1.5"
  />
<path
    d="M14.3334 10.2857C16.3453 10.2857 17.9762 8.65475 17.9762 6.64286C17.9762 4.63096 16.3453 3 14.3334 3"
    stroke="currentColor"
    stroke-width="1.5"
  />
</svg>
