<svg width="375" height="334" viewBox="0 0 375 334" fill="none" xmlns="http://www.w3.org/2000/svg">
<path opacity="0.2" d="M125.179 109.936C132.251 110.289 147.909 119.991 165.334 119.991H-16.2466C-1.59894 119.991 7.99783 101.998 22.1404 102.703C36.283 103.409 45.1222 111.524 47.6476 110.995C50.1731 110.465 55.9817 96 73.1548 96C90.328 96 96.1366 115.052 101.44 115.052C106.744 115.052 118.108 109.583 125.179 109.936Z" fill="url(#paint0_linear_30_198)" fill-opacity="0.5"/>
<path d="M148.916 1H234.801C241.429 1 246.801 6.37259 246.801 13V66.2565" stroke="#E9E9E9" stroke-miterlimit="10" stroke-linejoin="round"/>
<rect x="-0.29" y="0.29" width="104.022" height="69.4748" rx="8.71" transform="matrix(-1 0 0 1 242.383 4.83862)" fill="white" stroke="#25293B" stroke-width="0.58"/>
<circle cx="214.653" cy="46.5836" r="11.036" fill="#F0F0F0"/>
<circle cx="166.67" cy="46.5836" r="11.036" fill="#F0F0F0"/>
<path d="M242.5 20.1931H138.36" stroke="#25293B" stroke-width="0.5" stroke-miterlimit="10" stroke-linejoin="round"/>
<circle cx="190.661" cy="46.5836" r="15.8343" fill="#25293B"/>
<path d="M184.021 48.1159L187.633 51.7277L196.301 43.0594" stroke="white" stroke-width="3" stroke-linecap="round"/>
<circle cx="146.997" cy="12.5159" r="2.87896" fill="white" stroke="#25293B" stroke-width="0.5" stroke-miterlimit="10" stroke-linejoin="round"/>
<circle cx="156.594" cy="12.5159" r="2.87896" fill="white" stroke="#25293B" stroke-width="0.5" stroke-miterlimit="10" stroke-linejoin="round"/>
<circle cx="166.19" cy="12.5159" r="2.87896" fill="white" stroke="#25293B" stroke-width="0.5" stroke-miterlimit="10" stroke-linejoin="round"/>
<path d="M118.839 333.04L106.707 25.951" stroke="#25293B" stroke-width="0.5" stroke-miterlimit="10"/>
<path d="M50.1718 333.04L62.3633 25.951" stroke="#25293B" stroke-width="0.5" stroke-miterlimit="10"/>
<path d="M118.181 315.877H50.8293" stroke="#25293B" stroke-width="0.5" stroke-miterlimit="10"/>
<path d="M116.687 278.679H52.3233" stroke="#25293B" stroke-width="0.5" stroke-miterlimit="10"/>
<path d="M115.372 244.532H53.6978" stroke="#25293B" stroke-width="0.5" stroke-miterlimit="10"/>
<path d="M114.117 213.195H54.8931" stroke="#25293B" stroke-width="0.5" stroke-miterlimit="10"/>
<path d="M112.982 184.25H56.0883" stroke="#25293B" stroke-width="0.5" stroke-miterlimit="10"/>
<path d="M111.906 157.518H57.1042" stroke="#25293B" stroke-width="0.5" stroke-miterlimit="10"/>
<path d="M110.89 132.64H58.1202" stroke="#25293B" stroke-width="0.5" stroke-miterlimit="10"/>
<path d="M109.994 109.556H59.0167" stroke="#25293B" stroke-width="0.5" stroke-miterlimit="10"/>
<path d="M109.157 87.9669H59.8533" stroke="#25293B" stroke-width="0.5" stroke-miterlimit="10"/>
<path d="M108.321 67.8132H60.69" stroke="#25293B" stroke-width="0.5" stroke-miterlimit="10"/>
<path d="M107.603 48.9154H61.4072" stroke="#25293B" stroke-width="0.5" stroke-miterlimit="10"/>
<path d="M106.886 31.1539H62.1243" stroke="#25293B" stroke-width="0.5" stroke-miterlimit="10"/>
<path opacity="0.1" d="M365.308 25.3617C369.55 25.5734 378.945 31.3948 389.401 31.3948H280.452C289.241 31.3948 294.999 20.5987 303.484 21.0221C311.97 21.4455 317.273 26.3143 318.789 25.9968C320.304 25.6792 323.789 17 334.093 17C344.397 17 347.882 28.4312 351.064 28.4312C354.246 28.4312 361.065 25.15 365.308 25.3617Z" fill="url(#paint1_linear_30_198)" fill-opacity="0.5"/>
<path d="M82.2205 315.377H28L39.132 134.77L70.8006 168.55L61.6839 292.057C61.7798 292.057 77.1343 298.871 82.2205 315.377Z" fill="white"/>
<path fill-rule="evenodd" clip-rule="evenodd" d="M38.9401 139.664L39.0361 137.649L43.3545 139.184L70.8966 168.55L70.89 168.639L70.8966 168.646L70.0239 180.459L69.2652 190.814C69.2632 190.812 69.2613 190.811 69.2593 190.809L61.7799 292.057C50.4151 287.76 46.0834 288.974 46.0419 289.175L57.6524 179.521C40.5626 159.607 38.9401 139.664 38.9401 139.664Z" fill="black" fill-opacity="0.15"/>
<path d="M82.2204 315.377C77.2302 298.871 61.7798 292.057 61.7798 292.057C54.9662 289.274 50.2639 288.986 50.2639 288.986" fill="white"/>
<path d="M61.7798 292.057C61.7798 292.057 74.3513 300.982 75.023 311.634L28.3838 310.867L28.0959 315.377H82.2204C77.1343 298.871 61.7798 292.057 61.7798 292.057Z" fill="black" fill-opacity="0.15"/>
<path d="M82.2204 315.377C77.2302 298.871 61.7798 292.057 61.7798 292.057C54.9662 289.274 50.2639 288.986 50.2639 288.986" stroke="#25293B" stroke-width="0.5" stroke-miterlimit="10" stroke-linejoin="round"/>
<path d="M82.2205 315.377H28L39.132 134.77L70.8006 168.55L61.6839 292.057C61.7798 292.057 77.1343 298.871 82.2205 315.377Z" stroke="#25293B" stroke-width="0.5" stroke-miterlimit="10" stroke-linejoin="round"/>
<path d="M37.2127 121.047C36.4449 137.169 45.5616 170.757 76.4625 168.358C107.363 165.959 110.914 162.696 110.914 162.696L77.7101 258.181L131.739 273.536C131.739 273.536 137.688 255.494 119.647 244.746L152.275 152.715C156.594 140.624 147.765 127.86 134.905 127.668L87.1147 126.997L37.2127 121.047Z" fill="white"/>
<path d="M148.245 144.079C145.462 150.7 104.676 237.549 104.676 237.549L119.743 244.746L152.371 152.715C156.69 140.624 147.861 127.86 135.001 127.668C144.694 130.451 151.028 137.457 148.245 144.079Z" fill="black" fill-opacity="0.15"/>
<path d="M110.914 162.696C115.137 161.352 116.576 159.721 116.576 159.721L110.914 162.696Z" fill="white"/>
<path d="M110.914 162.696C115.137 161.352 116.576 159.721 116.576 159.721" stroke="#25293B" stroke-width="0.5" stroke-miterlimit="10" stroke-linejoin="round"/>
<path d="M131.739 273.44C131.739 273.44 137.593 255.494 119.647 244.65C113.985 241.196 113.313 240.332 113.313 240.332" fill="white"/>
<path d="M124.733 248.489C127.324 256.358 127.516 263.652 127.516 263.652L77.7101 258.181L131.739 273.536C131.739 273.44 136.441 259.237 124.733 248.489Z" fill="black" fill-opacity="0.15"/>
<path d="M131.739 273.44C131.739 273.44 137.593 255.494 119.647 244.65C113.985 241.196 112.929 241.004 112.929 241.004" stroke="#25293B" stroke-width="0.5" stroke-miterlimit="10" stroke-linejoin="round"/>
<path d="M37.2127 121.047C36.4449 137.169 45.5616 170.757 76.4625 168.358C107.363 165.959 110.914 162.696 110.914 162.696L77.7101 258.181L131.739 273.536C131.739 273.536 137.688 255.494 119.647 244.746L152.275 152.715C156.594 140.624 147.765 127.86 134.905 127.668L87.1147 126.997L37.2127 121.047Z" stroke="#25293B" stroke-width="0.5" stroke-miterlimit="10" stroke-linejoin="round"/>
<path d="M140.28 79.1101C144.31 76.9028 147.093 72.4884 148.245 69.4175C149.396 66.3466 149.396 61.9322 151.795 60.3008C154.099 58.6694 163.791 52.7196 165.135 53.1034C166.478 53.3913 166.958 54.6389 166.958 54.6389C166.958 54.6389 179.529 47.4415 181.065 47.7294C182.6 48.0173 182.216 52.4317 177.514 54.6389C173.292 56.6541 173.58 56.8461 173.58 56.8461C173.58 56.8461 176.842 60.6847 173.1 64.3314C173.1 64.3314 176.842 67.1144 172.908 71.7207C172.908 71.7207 175.499 75.4634 171.276 78.4383C167.054 81.5092 159.473 83.7164 157.265 84.2922L150.644 91.3936L140.28 79.1101Z" fill="white"/>
<path d="M156.114 85.5396C152.755 80.9333 142.583 77.4785 142.583 77.4785L139.372 80L150.74 91.2976L156.114 85.5396Z" fill="black" fill-opacity="0.15"/>
<path d="M154.866 86.8832L157.265 84.2921C154.482 85.8276 153.907 86.5953 154.866 86.8832Z" fill="#E8DCFF"/>
<path d="M140.28 79.1101C144.31 76.9028 147.093 72.4884 148.245 69.4175C149.396 66.3466 149.396 61.9322 151.795 60.3008C154.099 58.6694 163.791 52.7196 165.135 53.1034C166.478 53.3913 166.958 54.6389 166.958 54.6389C166.958 54.6389 179.529 47.4415 181.065 47.7294C182.6 48.0173 182.216 52.4317 177.514 54.6389C173.292 56.6541 173.58 56.8461 173.58 56.8461C173.58 56.8461 176.842 60.6847 173.1 64.3314C173.1 64.3314 176.842 67.1144 172.908 71.7207C172.908 71.7207 175.499 75.4634 171.276 78.4383C167.054 81.5092 159.473 83.7164 157.265 84.2922L150.644 91.3936L140.28 79.1101Z" stroke="#25293B" stroke-width="0.5" stroke-miterlimit="10" stroke-linejoin="round"/>
<path d="M173.771 56.6541C170.509 58.2855 169.069 59.3411 169.069 59.3411L173.771 56.6541Z" fill="white"/>
<path d="M173.771 56.6541C170.509 58.2855 169.069 59.3411 169.069 59.3411" stroke="#25293B" stroke-width="0.5" stroke-miterlimit="10" stroke-linejoin="round"/>
<path d="M181.065 47.7294C179.529 47.4415 166.958 54.6389 166.958 54.6389L161.104 57.9017" fill="white"/>
<path d="M181.065 47.7294C179.529 47.4415 166.958 54.6389 166.958 54.6389L161.104 57.9017" stroke="#25293B" stroke-width="0.5" stroke-miterlimit="10" stroke-linejoin="round"/>
<path d="M62.7394 60.3967L63.3152 53.1993L70.0328 53.9671L68.0175 62.1241L62.7394 60.3967Z" fill="white"/>
<path d="M62.7395 53.967C61.5879 54.5428 60.1485 53.967 58.709 52.2397C57.2695 50.5123 59.0928 47.5373 58.709 46.1938C58.3251 44.9463 58.2292 43.027 59.6686 42.1633C61.1081 41.2996 58.8049 39.6682 60.6283 38.8045C62.4516 37.9408 63.5072 39.2843 64.4669 38.3247C65.4266 37.365 64.179 36.8852 66.866 36.0215C69.649 35.0618 69.745 35.7336 71.6643 36.5013C73.6796 37.1731 75.0231 35.5417 75.8868 37.365C76.7505 39.1884 74.7352 39.4762 76.4626 42.0673C77.3263 43.4108 77.5182 43.6987 76.0787 46.2898C74.8312 48.497 74.2554 49.9365 70.9925 49.7445C69.9369 49.7445 62.7395 53.967 62.7395 53.967Z" fill="#25293B"/>
<path d="M70.0328 53.9671L63.3153 53.1993L63.1233 55.8864L63.3153 56.0783C63.3153 56.0783 64.8507 57.7097 69.0732 58.1895L70.0328 53.9671Z" fill="black" fill-opacity="0.15"/>
<path d="M72.0481 48.1131C73.0078 49.2647 72.432 52.4315 72.432 53.871C72.432 55.3105 69.553 56.9419 67.9216 56.9419C66.2902 57.0379 63.0274 56.2702 62.4516 55.4065C62.0677 54.7347 63.3153 51.6638 62.5476 51.4719C61.7798 51.184 61.396 48.401 62.7395 48.305C64.179 48.2091 63.6991 46.3857 64.7548 46.6736C65.3306 46.8655 69.649 45.1382 72.0481 48.1131Z" fill="white"/>
<path d="M56.5017 60.2048C66.0983 55.6944 82.4124 59.3411 91.6251 69.2256C100.838 79.11 111.97 98.6869 111.97 98.6869L140.184 75.3673C140.184 75.3673 150.74 84.772 153.331 92.0653C153.331 92.0653 121.086 124.022 113.313 127.285C105.444 130.643 90.9533 108.188 90.9533 108.188L92.0089 128.148C92.1049 130.356 90.4735 132.275 88.2663 132.467C82.0285 133.043 69.8409 134.098 62.5475 133.139C52.4712 131.795 33.662 126.037 35.1974 117.688C37.2127 107.996 49.9761 63.2757 56.5017 60.2048Z" fill="url(#paint2_linear_30_198)"/>
<path d="M92.105 128.148L91.1453 109.531C86.0591 102.909 76.5586 90.2419 74.8312 86.1154C74.8312 86.1154 76.0787 120.279 78.9577 133.234C82.6044 133.043 85.9632 132.755 88.3623 132.467C90.5695 132.275 92.2009 130.355 92.105 128.148Z" fill="black" fill-opacity="0.1"/>
<path d="M91.817 109.915C88.1703 105.98 77.6141 91.3935 77.6141 91.3935Z" fill="black" fill-opacity="0.15"/>
<path d="M91.817 109.915C88.1703 105.98 77.6141 91.3935 77.6141 91.3935" stroke="white" stroke-miterlimit="10"/>
<path d="M69.8409 58.5734C83.468 64.1394 110.914 102.717 110.914 109.723L111.778 98.3031C109.954 95.2322 99.974 78.3423 91.721 69.3215C86.0591 63.1797 77.7101 59.4371 69.8409 58.5734Z" fill="black" fill-opacity="0.15"/>
<path d="M149.108 84.868C149.108 84.868 122.142 121.719 104.676 124.31C107.843 126.901 110.914 128.34 113.409 127.285C121.278 124.022 153.372 92 153.372 92C152.372 89.5 150.932 87.2671 149.108 84.868Z" fill="black" fill-opacity="0.15"/>
<mask id="mask0_30_198" style="mask-type:alpha" maskUnits="userSpaceOnUse" x="35" y="57" width="116" height="77">
<path d="M56.5065 59.7968C66.1282 55.3116 82.4433 58.8998 91.6467 68.8271C94.5996 72.0123 97.7556 76.1887 100.68 80.3924C105.862 87.8402 108.453 91.5641 111.654 92.6025C112.845 92.9886 113.905 93.1338 115.156 93.0817C118.518 92.9416 121.804 90.2251 128.375 84.7921L130.766 82.8144C133.198 80.8039 134.414 79.7987 135.972 79.2107C138.559 78.2343 142.189 78.5451 144.572 79.947C146.008 80.7912 146.388 81.2343 147.148 82.1207V82.1207C148.65 83.871 149.401 84.7461 150.014 86.247C150.846 88.2846 150.638 92.71 149.618 94.6604C148.867 96.0971 148.198 96.7429 146.859 98.0344C137.022 107.528 118.941 124.543 113.34 126.896C110.64 128.051 107.143 126.132 103.72 123.123C99.6264 119.523 91.7718 122.29 92.065 127.733V127.733C92.1845 129.946 90.571 131.86 88.3 132.099C82.025 132.697 69.8932 133.714 62.6022 132.757C52.5024 131.441 33.7371 125.64 35.2909 117.327C37.1435 107.52 49.9327 62.8468 56.5065 59.7968Z" fill="url(#paint3_linear_30_198)"/>
</mask>
<g mask="url(#mask0_30_198)">
<g style="mix-blend-mode:overlay" opacity="0.5">
<path d="M100.699 134.991C101.729 138.295 99.8761 141.771 96.5188 142.822C92.8328 143.943 88.8489 141.9 87.6594 138.221C86.359 134.124 88.69 129.724 92.849 128.452C97.5271 127.033 102.495 129.598 103.946 134.206C105.595 139.328 102.684 144.783 97.4839 146.395C91.6692 148.194 85.4505 144.953 83.6108 139.226C81.5861 132.803 85.1899 125.982 91.711 124.002C98.9908 121.755 106.731 125.78 109.03 132.95C111.554 140.91 107.048 149.449 98.9208 151.913C89.8442 154.724 80.1333 149.701 77.3043 140.764C74.1302 130.756 79.7922 120.153 89.9071 117.047C101.251 113.568 113.335 119.797 116.894 130.97C120.875 143.447 113.83 156.736 101.166 160.583C86.9871 164.922 71.952 157.128 67.5114 143.208" stroke="black" stroke-miterlimit="10"/>
</g>
<g style="mix-blend-mode:overlay" opacity="0.5">
<path d="M93.1913 80.1356C87.5247 82.3578 81.2196 79.4772 78.9849 73.6337C76.5905 67.2142 79.7032 59.8892 86.0083 57.3379C93.0317 54.5396 101.013 58.1609 103.726 65.4035C106.759 73.5514 102.848 82.687 94.9472 85.8145C86.1679 89.3535 76.2713 84.8269 72.8394 75.7736C69.0084 65.6504 73.9567 54.2104 83.7735 50.2599C94.7875 45.8978 107.158 51.4944 111.388 62.8521C116.177 75.5267 110.032 89.765 97.7406 94.7032C84.0928 100.135 68.6094 93.1394 63.3418 78.9834C57.3559 63.1813 65.0178 45.3217 80.3416 39.2314C97.5011 32.4003 116.736 41.2066 123.36 58.8193C130.783 78.5719 121.285 100.794 102.13 108.448C80.7407 117.007 56.6376 106.061 48.4171 84.0038C39.1589 59.3131 51.0508 31.6595 74.9145 22.1125" stroke="black" stroke-miterlimit="10"/>
</g>
<g style="mix-blend-mode:overlay" opacity="0.5">
<path d="M139.999 108.275C141.784 105.506 145.283 104.233 147.887 105.412C150.722 106.729 151.468 110.314 149.504 113.422C147.305 116.87 142.882 118.489 139.679 117.008C136.083 115.334 135.165 110.853 137.646 106.981C140.384 102.658 145.878 100.662 149.899 102.5C154.393 104.557 155.521 110.186 152.457 115.019C149 120.417 142.15 122.932 137.137 120.6C131.514 118.022 130.105 111.02 133.943 104.972C138.219 98.2742 146.79 95.1231 153.036 98.0315C160.053 101.24 161.841 110.007 157.037 117.524C151.661 125.946 140.98 129.821 133.179 126.228C124.433 122.195 122.195 111.301 128.187 101.89C134.876 91.3771 148.235 86.4908 157.972 91.0179C168.896 96.0655 171.651 109.649 164.189 121.377" stroke="black" stroke-miterlimit="10"/>
</g>
<g style="mix-blend-mode:overlay" opacity="0.5">
<path d="M35.82 131.954C30.3558 133.699 24.2759 131.438 22.1209 126.851C19.8121 121.812 22.8136 116.062 28.8935 114.059C35.6661 111.863 43.3622 114.705 45.9789 120.39C48.9034 126.786 45.1323 133.957 37.5132 136.412C29.0474 139.19 19.5043 135.637 16.1949 128.53C12.5008 120.584 17.2724 111.604 26.7386 108.503C37.3592 105.08 49.2882 109.473 53.3671 118.388C57.9848 128.337 52.0588 139.513 40.2068 143.389C27.0464 147.653 12.116 142.162 7.03657 131.05C1.26449 118.646 8.65275 104.627 23.4293 99.8467C39.9759 94.4846 58.5235 101.397 64.9113 115.222C72.0687 130.727 62.9103 148.17 44.4397 154.178C23.8141 160.896 0.571841 152.304 -7.35515 134.991C-16.2826 115.61 -4.81543 93.9032 18.1959 86.4093" stroke="black" stroke-miterlimit="10"/>
</g>
</g>
<path d="M344.519 119.28V274.496C344.519 279.467 340.49 283.496 335.519 283.496H264.866" stroke="#25293B" stroke-width="0.58"/>
<rect x="-0.29" y="0.29" width="87.8023" height="171.82" rx="8.71" transform="matrix(-1 0 0 1 340.666 106.732)" fill="white" stroke="#25293B" stroke-width="0.58"/>
<rect x="-0.29" y="0.29" width="71.4352" height="22.3339" rx="8.71" transform="matrix(-1 0 0 1 238.644 98)" fill="white" stroke="#25293B" stroke-width="0.58"/>
<rect x="-0.29" y="0.29" width="71.4352" height="74.7086" rx="8.71" transform="matrix(-1 0 0 1 238.42 143.83)" fill="white" stroke="#25293B" stroke-width="0.58"/>
<path d="M344.519 160.197H357.705C361.571 160.197 364.705 163.331 364.705 167.197V219.757C364.705 223.623 361.571 226.757 357.705 226.757H344.519M295.963 283.496V294.5C295.963 298.366 292.829 301.5 288.963 301.5H220.037C216.171 301.5 213.037 298.366 213.037 294.5V281.859M253.954 160.197H238.133M208.672 144.376V121M208.672 98.5V75M310 107.277V87.7228" stroke="#B3B3B3" stroke-dasharray="2 2"/>
<rect x="-0.29" y="0.29" width="51.7947" height="51.7947" rx="8.71" transform="matrix(-1 0 0 1 238.098 228.939)" fill="white" stroke="#25293B" stroke-width="0.58"/>
<line y1="-0.25" x2="27.2785" y2="-0.25" transform="matrix(-1 0 0 1 328.152 125.281)" stroke="black" stroke-width="0.5"/>
<line y1="-0.25" x2="41.4633" y2="-0.25" transform="matrix(-1 0 0 1 328.152 134.01)" stroke="black" stroke-width="0.5"/>
<line y1="-0.25" x2="30.5519" y2="-0.25" transform="matrix(-1 0 0 1 328.152 143.83)" stroke="black" stroke-width="0.5"/>
<line y1="-0.25" x2="39.281" y2="-0.25" transform="matrix(-1 0 0 1 328.152 152.559)" stroke="black" stroke-width="0.5"/>
<line y1="-0.25" x2="27.2785" y2="-0.25" transform="matrix(-1 0 0 1 328.152 161.289)" stroke="black" stroke-width="0.5"/>
<line y1="-0.25" x2="48.0101" y2="-0.25" transform="matrix(-1 0 0 1 328.152 171.109)" stroke="black" stroke-width="0.5"/>
<line y1="-0.25" x2="31.643" y2="-0.25" transform="matrix(-1 0 0 1 328.152 179.838)" stroke="black" stroke-width="0.5"/>
<path d="M220.096 241.426C222.618 242.574 224.774 244.359 226.337 246.593C227.899 248.827 228.81 251.427 228.973 254.12C229.137 256.813 228.547 259.499 227.266 261.894C225.985 264.29 224.059 266.307 221.693 267.733L218.635 262.98C220.117 262.086 221.324 260.822 222.127 259.321C222.93 257.819 223.299 256.136 223.197 254.449C223.094 252.761 222.524 251.131 221.544 249.731C220.565 248.331 219.214 247.213 217.633 246.493L220.096 241.426Z" fill="#7EE3BF"/>
<mask id="path-78-inside-1_30_198" fill="white">
<path d="M229.232 249.873C230.127 252.788 230.242 255.897 229.566 258.874C228.89 261.851 227.447 264.585 225.389 266.788C223.332 268.99 220.736 270.581 217.875 271.392C215.014 272.202 211.993 272.203 209.132 271.393L211.509 262.471C212.813 262.84 214.19 262.84 215.494 262.47C216.798 262.101 217.981 261.376 218.919 260.372C219.856 259.368 220.514 258.122 220.822 256.766C221.13 255.409 221.078 253.992 220.67 252.663L229.232 249.873Z"/>
</mask>
<path d="M229.232 249.873C230.127 252.788 230.242 255.897 229.566 258.874C228.89 261.851 227.447 264.585 225.389 266.788C223.332 268.99 220.736 270.581 217.875 271.392C215.014 272.202 211.993 272.203 209.132 271.393L211.509 262.471C212.813 262.84 214.19 262.84 215.494 262.47C216.798 262.101 217.981 261.376 218.919 260.372C219.856 259.368 220.514 258.122 220.822 256.766C221.13 255.409 221.078 253.992 220.67 252.663L229.232 249.873Z" fill="#25293B" stroke="black" mask="url(#path-78-inside-1_30_198)"/>
<mask id="path-79-inside-2_30_198" fill="white">
<path d="M228.901 265.587C226.88 268.546 224.046 270.856 220.74 272.239C217.435 273.622 213.799 274.018 210.274 273.378C206.748 272.739 203.483 271.093 200.873 268.638C198.263 266.183 196.42 263.024 195.567 259.544C194.713 256.064 194.886 252.411 196.064 249.027C197.243 245.643 199.376 242.673 202.206 240.476C205.036 238.278 208.442 236.947 212.012 236.644C215.583 236.34 219.164 237.078 222.325 238.767L216.425 249.807C215.397 249.258 214.233 249.018 213.072 249.117C211.911 249.215 210.803 249.648 209.883 250.363C208.963 251.077 208.269 252.043 207.886 253.143C207.503 254.244 207.447 255.431 207.724 256.563C208.002 257.695 208.601 258.722 209.45 259.52C210.298 260.318 211.36 260.853 212.506 261.061C213.653 261.269 214.835 261.14 215.91 260.691C216.985 260.241 217.906 259.49 218.563 258.528L228.901 265.587Z"/>
</mask>
<path d="M228.901 265.587C226.88 268.546 224.046 270.856 220.74 272.239C217.435 273.622 213.799 274.018 210.274 273.378C206.748 272.739 203.483 271.093 200.873 268.638C198.263 266.183 196.42 263.024 195.567 259.544C194.713 256.064 194.886 252.411 196.064 249.027C197.243 245.643 199.376 242.673 202.206 240.476C205.036 238.278 208.442 236.947 212.012 236.644C215.583 236.34 219.164 237.078 222.325 238.767L216.425 249.807C215.397 249.258 214.233 249.018 213.072 249.117C211.911 249.215 210.803 249.648 209.883 250.363C208.963 251.077 208.269 252.043 207.886 253.143C207.503 254.244 207.447 255.431 207.724 256.563C208.002 257.695 208.601 258.722 209.45 259.52C210.298 260.318 211.36 260.853 212.506 261.061C213.653 261.269 214.835 261.14 215.91 260.691C216.985 260.241 217.906 259.49 218.563 258.528L228.901 265.587Z" fill="white" stroke="black" mask="url(#path-79-inside-2_30_198)"/>
<path d="M179 186L193.854 167.778L210.427 177.358L227 157" stroke="black" stroke-width="0.5"/>
<line x1="229" y1="201.25" x2="178" y2="201.25" stroke="black" stroke-width="0.5"/>
<path d="M175.938 110.548C180.848 107.275 189.032 108.366 197.761 110.548C206.49 112.73 208.127 107.275 213.582 106.184C219.038 105.092 226.676 107.82 230.495 110.548" stroke="black" stroke-width="0.5"/>
<circle cx="271.958" cy="204.934" r="1.93228" stroke="black" stroke-width="0.5"/>
<circle cx="306.875" cy="204.934" r="2.18228" fill="#7EE3BF"/>
<circle cx="324.333" cy="204.934" r="1.93228" stroke="black" stroke-width="0.5"/>
<circle cx="271.958" cy="222.392" r="1.93228" stroke="black" stroke-width="0.5"/>
<circle cx="289.416" cy="222.392" r="1.93228" stroke="black" stroke-width="0.5"/>
<circle cx="306.875" cy="222.392" r="1.93228" stroke="black" stroke-width="0.5"/>
<circle cx="324.333" cy="222.392" r="1.93228" stroke="black" stroke-width="0.5"/>
<circle cx="271.958" cy="239.851" r="1.93228" stroke="black" stroke-width="0.5"/>
<circle cx="289.416" cy="239.851" r="2.18228" fill="#7EE3BF"/>
<circle cx="306.875" cy="239.851" r="1.93228" stroke="black" stroke-width="0.5"/>
<circle cx="289.416" cy="257.309" r="1.93228" stroke="black" stroke-width="0.5"/>
<circle cx="306.875" cy="257.309" r="1.93228" stroke="black" stroke-width="0.5"/>
<circle cx="324.333" cy="257.309" r="2.18228" fill="#7EE3BF"/>
<path d="M187 333H24" stroke="#25293B" stroke-width="0.5" stroke-miterlimit="10"/>
<rect x="-0.29" y="0.29" width="101.42" height="45.42" rx="8.71" transform="matrix(-1 0 0 1 361.42 42)" fill="white" stroke="#25293B" stroke-width="0.58"/>
<rect x="272.25" y="63.25" width="8.5" height="13.5" stroke="black" stroke-width="0.5"/>
<rect x="289" y="53" width="9" height="24" fill="#7FE3BF"/>
<rect x="306.25" y="60.25" width="8.5" height="16.5" stroke="black" stroke-width="0.5"/>
<rect x="323" y="53" width="9" height="24" fill="#7FE3BF"/>
<rect x="340.25" y="66.25" width="8.5" height="10.5" stroke="black" stroke-width="0.5"/>
<defs>
<linearGradient id="paint0_linear_30_198" x1="72.2108" y1="121.627" x2="72.0208" y2="98.7246" gradientUnits="userSpaceOnUse">
<stop offset="0.0260417" stop-color="#303030" stop-opacity="0"/>
<stop offset="0.987747" stop-color="#5A5A5A"/>
</linearGradient>
<linearGradient id="paint1_linear_30_198" x1="333.526" y1="32.3763" x2="333.412" y2="18.6348" gradientUnits="userSpaceOnUse">
<stop offset="0.0260417" stop-color="#303030" stop-opacity="0"/>
<stop offset="0.987747" stop-color="#5A5A5A"/>
</linearGradient>
<linearGradient id="paint2_linear_30_198" x1="39.628" y1="46.2005" x2="147.589" y2="52.001" gradientUnits="userSpaceOnUse">
<stop stop-color="#5DEFBA"/>
<stop offset="1" stop-color="#87DFBF"/>
</linearGradient>
<linearGradient id="paint3_linear_30_198" x1="39.7177" y1="45.7936" x2="147.642" y2="51.5881" gradientUnits="userSpaceOnUse">
<stop stop-color="#B881D1"/>
<stop offset="1" stop-color="#EAB1A1"/>
</linearGradient>
</defs>
</svg>
